<svg width="190" height="18" viewBox="0 0 190 18" fill="none" xmlns="http://www.w3.org/2000/svg">
<path d="M4.656 14H2.752L0.56 2.8H1.968L3.728 12.592L5.632 2.8H7.008L4.656 14ZM7.9625 14V12.832H9.0825V3.968H7.9625V2.8H11.5945V3.968H10.4745V12.832H11.5945V14H7.9625ZM13.3606 14V2.8H18.6086V3.968H14.7526V7.632H18.2086V8.8H14.7526V12.832H18.6086V14H13.3606ZM27.3231 14H25.1471L24.0751 9.136L22.9071 14H20.8271L20.2831 2.8H21.5151L21.9951 13.12L23.4351 7.52H24.7471L26.2031 13.12L26.6991 2.8H27.8671L27.3231 14ZM39.3973 11.472C39.3973 12.3893 39.1839 13.04 38.7573 13.424C38.3413 13.808 37.6479 14 36.6773 14H33.5413V2.8H36.4853C37.4453 2.8 38.1706 2.99733 38.6613 3.392C39.1519 3.776 39.3973 4.41067 39.3973 5.296V11.472ZM38.0053 5.152C38.0053 4.8 37.8986 4.52267 37.6853 4.32C37.4719 4.10667 37.1893 4 36.8373 4H34.9333V12.8H36.8213C37.2266 12.8 37.5253 12.7093 37.7173 12.528C37.9093 12.336 38.0053 12.0373 38.0053 11.632V5.152ZM41.0031 14V12.832H42.1231V3.968H41.0031V2.8H44.6351V3.968H43.5151V12.832H44.6351V14H41.0031ZM49.1212 14C48.1932 14 47.4786 13.776 46.9772 13.328C46.4866 12.8693 46.2412 12.1867 46.2412 11.28V5.52C46.2412 4.61333 46.4866 3.936 46.9772 3.488C47.4786 3.02933 48.1932 2.8 49.1212 2.8H51.2812V4.016H48.9612C48.5666 4.016 48.2466 4.13333 48.0012 4.368C47.7559 4.60267 47.6332 4.88533 47.6332 5.216V11.584C47.6332 11.9147 47.7559 12.1973 48.0012 12.432C48.2466 12.6667 48.5666 12.784 48.9612 12.784H50.4332V9.312H49.0892V8.112H51.7612V14H49.1212ZM53.285 14V12.832H54.405V3.968H53.285V2.8H56.917V3.968H55.797V12.832H56.917V14H53.285ZM61.4191 4.016V14H60.0271V4.016H57.5631V2.8H63.8831V4.016H61.4191ZM69.1791 14L68.5711 11.168H65.4511L64.8271 14H63.4031L66.1071 2.8H67.9471L70.6031 14H69.1791ZM67.0031 3.856L65.7071 9.968H68.3151L67.0031 3.856ZM72.0431 14V2.8H73.4351V12.784H77.0031V14H72.0431ZM82.1219 14V2.8H87.3699V3.968H83.5139V7.632H86.9699V8.8H83.5139V12.832H87.3699V14H82.1219ZM93.8124 14L91.9884 9.712L90.0684 14H88.5644L91.2844 8.208L88.8044 2.8H90.3244L92.0044 6.656L93.7324 2.8H95.2204L92.6924 8.192L95.3804 14H93.8124ZM101.67 14V8.848H98.3739V14H96.9819V2.8H98.3739V7.664H101.67V2.8H103.062V14H101.67ZM104.819 14V12.832H105.939V3.968H104.819V2.8H108.451V3.968H107.331V12.832H108.451V14H104.819ZM115.977 11.472C115.977 12.3893 115.764 13.04 115.337 13.424C114.921 13.808 114.228 14 113.257 14H110.217V2.8H113.065C114.014 2.8 114.708 2.992 115.145 3.376C115.593 3.76 115.817 4.4 115.817 5.296V6.208C115.817 7.02933 115.524 7.648 114.937 8.064C115.63 8.448 115.977 9.104 115.977 10.032V11.472ZM114.425 5.152C114.425 4.74667 114.329 4.45333 114.137 4.272C113.956 4.09067 113.662 4 113.257 4H111.609V7.536H113.257C113.588 7.536 113.865 7.42933 114.089 7.216C114.313 7.00267 114.425 6.72 114.425 6.368V5.152ZM114.585 9.888C114.585 9.536 114.478 9.25867 114.265 9.056C114.052 8.84267 113.769 8.736 113.417 8.736H111.609V12.8H113.401C113.806 12.8 114.105 12.7093 114.297 12.528C114.489 12.336 114.585 12.0373 114.585 11.632V9.888ZM117.569 14V12.832H118.689V3.968H117.569V2.8H121.201V3.968H120.081V12.832H121.201V14H117.569ZM125.703 4.016V14H124.311V4.016H121.847V2.8H128.167V4.016H125.703ZM128.804 14V12.832H129.924V3.968H128.804V2.8H132.436V3.968H131.316V12.832H132.436V14H128.804ZM140.346 11.28C140.346 12.1867 140.096 12.8693 139.594 13.328C139.104 13.776 138.394 14 137.466 14H136.922C135.994 14 135.28 13.776 134.778 13.328C134.288 12.8693 134.042 12.1867 134.042 11.28V5.52C134.042 4.61333 134.288 3.936 134.778 3.488C135.28 3.02933 135.994 2.8 136.922 2.8H137.466C138.394 2.8 139.104 3.02933 139.594 3.488C140.096 3.936 140.346 4.61333 140.346 5.52V11.28ZM138.954 5.216C138.954 4.88533 138.832 4.60267 138.586 4.368C138.341 4.13333 138.021 4.016 137.626 4.016H136.762C136.368 4.016 136.048 4.13333 135.802 4.368C135.557 4.60267 135.434 4.88533 135.434 5.216V11.584C135.434 11.9147 135.557 12.1973 135.802 12.432C136.048 12.6667 136.368 12.784 136.762 12.784H137.626C138.021 12.784 138.341 12.6667 138.586 12.432C138.832 12.1973 138.954 11.9147 138.954 11.584V5.216ZM146.33 14L143.882 3.984V14H142.586V2.8H144.858L147.322 12.816V2.8H148.618V14H146.33Z" fill="black"/>
<path d="M190 9L185 6.11325V11.8868L190 9ZM158 9.5H185.5V8.5H158V9.5Z" fill="black"/>
</svg>
