<svg width="160" height="20" viewBox="0 0 160 20" fill="none" xmlns="http://www.w3.org/2000/svg">
<path d="M4.59 16C3.546 16 2.742 15.748 2.178 15.244C1.626 14.728 1.35 13.96 1.35 12.94V6.46C1.35 5.44 1.626 4.678 2.178 4.174C2.742 3.658 3.546 3.4 4.59 3.4H6.786V4.768H4.41C3.966 4.768 3.606 4.9 3.33 5.164C3.054 5.428 2.916 5.746 2.916 6.118V13.282C2.916 13.654 3.054 13.972 3.33 14.236C3.606 14.5 3.966 14.632 4.41 14.632H6.786V16H4.59ZM15.3359 12.94C15.3359 13.96 15.0539 14.728 14.4899 15.244C13.9379 15.748 13.1399 16 12.0959 16H11.8259C10.7819 16 9.97786 15.748 9.41386 15.244C8.86186 14.728 8.58586 13.96 8.58586 12.94V3.4H10.1519V13.282C10.1519 13.654 10.2899 13.972 10.5659 14.236C10.8419 14.5 11.2019 14.632 11.6459 14.632H12.2759C12.7199 14.632 13.0799 14.5 13.3559 14.236C13.6319 13.972 13.7699 13.654 13.7699 13.282V3.4H15.3359V12.94ZM17.9487 16V3.4H19.5147V14.632H23.5287V16H17.9487ZM27.4167 4.768V16H25.8507V4.768H23.0787V3.4H30.1887V4.768H27.4167ZM38.2852 12.94C38.2852 13.96 38.0032 14.728 37.4392 15.244C36.8872 15.748 36.0892 16 35.0452 16H34.7752C33.7312 16 32.9272 15.748 32.3632 15.244C31.8112 14.728 31.5352 13.96 31.5352 12.94V3.4H33.1012V13.282C33.1012 13.654 33.2392 13.972 33.5152 14.236C33.7912 14.5 34.1512 14.632 34.5952 14.632H35.2252C35.6692 14.632 36.0292 14.5 36.3052 14.236C36.5812 13.972 36.7192 13.654 36.7192 13.282V3.4H38.2852V12.94ZM44.066 10.78H42.464V16H40.898V3.4H44.12C45.14 3.4 45.908 3.628 46.424 4.084C46.952 4.528 47.216 5.236 47.216 6.208V7.936C47.216 9.292 46.676 10.138 45.596 10.474L48.098 16H46.388L44.066 10.78ZM45.65 6.046C45.65 5.59 45.542 5.26 45.326 5.056C45.122 4.852 44.792 4.75 44.336 4.75H42.464V9.43H44.336C44.792 9.43 45.122 9.328 45.326 9.124C45.542 8.908 45.65 8.572 45.65 8.116V6.046ZM49.8895 16V3.4H55.7935V4.714H51.4555V8.836H55.3435V10.15H51.4555V14.686H55.7935V16H49.8895ZM69.1391 16V4.696L67.2131 11.77H65.7191L63.7931 4.696V16H62.3531V3.4H64.8911L66.5291 9.844L68.1491 3.4H70.6331V16H69.1391ZM79.991 12.94C79.991 13.96 79.709 14.728 79.145 15.244C78.593 15.748 77.795 16 76.751 16H76.481C75.437 16 74.633 15.748 74.069 15.244C73.517 14.728 73.241 13.96 73.241 12.94V3.4H74.807V13.282C74.807 13.654 74.945 13.972 75.221 14.236C75.497 14.5 75.857 14.632 76.301 14.632H76.931C77.375 14.632 77.735 14.5 78.011 14.236C78.287 13.972 78.425 13.654 78.425 13.282V3.4H79.991V12.94ZM87.9858 12.94C87.9858 13.96 87.7038 14.728 87.1398 15.244C86.5878 15.748 85.7898 16 84.7458 16H82.3698V14.632H84.9258C85.3698 14.632 85.7298 14.5 86.0058 14.236C86.2818 13.972 86.4198 13.654 86.4198 13.282V11.41C86.4198 11.05 86.3238 10.762 86.1318 10.546C85.9518 10.318 85.6758 10.204 85.3038 10.204H84.9438C84.0558 10.204 83.3538 9.946 82.8378 9.43C82.3218 8.902 82.0638 8.14 82.0638 7.144V6.46C82.0638 5.44 82.3398 4.678 82.8918 4.174C83.4558 3.658 84.2598 3.4 85.3038 3.4H87.6978V4.768H85.1238C84.6798 4.768 84.3198 4.9 84.0438 5.164C83.7678 5.428 83.6298 5.746 83.6298 6.118V7.486C83.6298 7.858 83.7498 8.17 83.9898 8.422C84.2298 8.662 84.5418 8.782 84.9258 8.782H85.2858C86.1378 8.782 86.7978 9.028 87.2658 9.52C87.7458 10.012 87.9858 10.756 87.9858 11.752V12.94ZM90.154 16V3.4H96.058V4.714H91.72V8.836H95.608V10.15H91.72V14.686H96.058V16H90.154ZM104.962 12.94C104.962 13.96 104.68 14.728 104.116 15.244C103.564 15.748 102.766 16 101.722 16H101.452C100.408 16 99.6038 15.748 99.0398 15.244C98.4878 14.728 98.2118 13.96 98.2118 12.94V3.4H99.7778V13.282C99.7778 13.654 99.9158 13.972 100.192 14.236C100.468 14.5 100.828 14.632 101.272 14.632H101.902C102.346 14.632 102.706 14.5 102.982 14.236C103.258 13.972 103.396 13.654 103.396 13.282V3.4H104.962V12.94ZM114.361 16V4.696L112.435 11.77H110.941L109.015 4.696V16H107.575V3.4H110.113L111.751 9.844L113.371 3.4H115.855V16H114.361ZM129.186 8.26C129.186 9.232 128.928 9.952 128.412 10.42C127.896 10.876 127.134 11.104 126.126 11.104H124.434V16H122.868V3.4H126.09C127.11 3.4 127.878 3.628 128.394 4.084C128.922 4.528 129.186 5.236 129.186 6.208V8.26ZM127.62 6.046C127.62 5.59 127.512 5.26 127.296 5.056C127.092 4.852 126.762 4.75 126.306 4.75H124.434V9.754H126.306C126.762 9.754 127.092 9.652 127.296 9.448C127.512 9.232 127.62 8.896 127.62 8.44V6.046ZM136.047 16L135.363 12.814H131.853L131.151 16H129.549L132.591 3.4H134.661L137.649 16H136.047ZM133.599 4.588L132.141 11.464H135.075L133.599 4.588ZM142.437 10.78H140.835V16H139.269V3.4H142.491C143.511 3.4 144.279 3.628 144.795 4.084C145.323 4.528 145.587 5.236 145.587 6.208V7.936C145.587 9.292 145.047 10.138 143.967 10.474L146.469 16H144.759L142.437 10.78ZM144.021 6.046C144.021 5.59 143.913 5.26 143.697 5.056C143.493 4.852 143.163 4.75 142.707 4.75H140.835V9.43H142.707C143.163 9.43 143.493 9.328 143.697 9.124C143.913 8.908 144.021 8.572 144.021 8.116V6.046ZM147.541 16V14.686H148.801V4.714H147.541V3.4H151.627V4.714H150.367V14.686H151.627V16H147.541ZM158.996 12.94C158.996 13.96 158.714 14.728 158.15 15.244C157.598 15.748 156.8 16 155.756 16H153.38V14.632H155.936C156.38 14.632 156.74 14.5 157.016 14.236C157.292 13.972 157.43 13.654 157.43 13.282V11.41C157.43 11.05 157.334 10.762 157.142 10.546C156.962 10.318 156.686 10.204 156.314 10.204H155.954C155.066 10.204 154.364 9.946 153.848 9.43C153.332 8.902 153.074 8.14 153.074 7.144V6.46C153.074 5.44 153.35 4.678 153.902 4.174C154.466 3.658 155.27 3.4 156.314 3.4H158.708V4.768H156.134C155.69 4.768 155.33 4.9 155.054 5.164C154.778 5.428 154.64 5.746 154.64 6.118V7.486C154.64 7.858 154.76 8.17 155 8.422C155.24 8.662 155.552 8.782 155.936 8.782H156.296C157.148 8.782 157.808 9.028 158.276 9.52C158.756 10.012 158.996 10.756 158.996 11.752V12.94Z" fill="black"/>
</svg>
